<svg width="800" height="800" viewBox="0 0 800 800" fill="none" xmlns="http://www.w3.org/2000/svg">
<path fill-rule="evenodd" clip-rule="evenodd" d="M487.295 354.021C487.295 354.021 483.971 355.691 481.374 356.975C472.288 361.477 465.189 376.887 462.296 386.456C457.395 402.674 466.912 415.429 482.61 417.612C543.177 426.035 548.009 322.959 487.295 354.021Z" stroke="#1F2937" stroke-width="18" stroke-linecap="round"/>
<path fill-rule="evenodd" clip-rule="evenodd" d="M489.213 382.71C477.339 376.675 479.521 389.707 485.767 389.707C489.005 389.707 492.012 384.132 489.213 382.71Z" fill="#1F2937" stroke="#1F2937" stroke-width="18" stroke-linecap="round"/>
<path fill-rule="evenodd" clip-rule="evenodd" d="M393.325 398.086C389.762 397.477 383.004 397.416 377.794 398.09C368.33 399.322 358.423 404.19 351.962 410.712C339.93 422.858 340.881 445.764 356.205 453.607C372.93 462.165 405.727 453.509 416.451 438.515C428.869 421.151 409.637 400.866 393.325 398.086Z" stroke="#1F2937" stroke-width="18" stroke-linecap="round"/>
<path fill-rule="evenodd" clip-rule="evenodd" d="M374.763 422.171C373.17 422.366 372.491 423.175 371.073 424.117C364.429 428.51 372.438 433.976 376.693 433.976C383.641 433.976 380.281 423.435 380.317 422.902C380.476 420.769 374.763 422.171 374.763 422.171Z" fill="#1F2937" stroke="#1F2937" stroke-width="18" stroke-linecap="round"/>
<path fill-rule="evenodd" clip-rule="evenodd" d="M506.731 456.988C506.731 456.988 499.937 456.126 462.536 456.988C444.351 457.406 417.788 469.759 424.927 491.861C436.281 526.995 480.651 493.921 496.686 481.479C507.243 473.287 517.434 462.689 522.977 461.132C526.716 460.088 552.54 451.689 506.731 456.988Z" stroke="#1F2937" stroke-width="18" stroke-linecap="round"/>
<path d="M222.31 364.18C228.767 388.09 242.375 417.226 252.738 441.676C255.676 448.613 266.826 470.682 269.228 477.964C273.75 491.682 278.773 496.477 286.392 509.018C301.053 533.147 322.923 556.695 346.24 572.121C374.393 590.744 438.593 578.606 468.411 568.476C511.965 553.68 528.633 539.251 541.669 527.946C561.792 510.501 594.76 473.421 604.577 448.873C618.723 413.512 626.094 351.892 622.152 313.181C620.734 299.268 620.434 281.145 618.406 264.206C617.926 260.179 616.841 245.369 614.663 232.192C612.506 219.151 605.699 192.065 602.834 189.064" stroke="#1F2937" stroke-width="18" stroke-linecap="round"/>
<path fill-rule="evenodd" clip-rule="evenodd" d="M270.845 263.854C278.773 257.328 371.914 193.05 439.223 171.995C487.002 157.05 539.252 149.889 585.686 171.217C593.513 174.813 603.285 183.481 604.712 196.078C608.044 225.466 584.597 240.118 565.661 257.503C550.662 271.274 478.891 308.952 465.169 316.34C421.489 339.855 374.722 355.411 326.719 368.118C308.071 373.051 251.137 389.914 233.639 376.891C225.626 370.929 221.529 365.232 220.428 355.59C219.583 348.165 219.624 339.161 220.822 331.732C223.366 315.994 257.431 274.894 270.845 263.854Z" stroke="#1F2937" stroke-width="18" stroke-linecap="round"/>
<path fill-rule="evenodd" clip-rule="evenodd" d="M362.873 260.174C365.331 257.559 381.135 249.354 385.584 247.129C401.989 238.928 497.113 194.339 505.959 218.434C511.152 232.577 488.892 245.966 478.575 254.264C446.924 279.727 399.835 296.063 362.613 311.222C350.784 316.039 313.37 324.329 330.466 297.716C334.221 291.87 362.873 260.174 362.873 260.174Z" stroke="#1F2937" stroke-width="18" stroke-linecap="round"/>
<path d="M539.886 529.664C540.381 530.688 658.936 499.435 640.776 545.945C630.572 572.069 594.776 579.28 567.904 583.625C553.893 585.889 512.656 595.112 498.608 597.044C448.342 603.96 396.954 631.319 305.812 626.187C293.869 625.512 261.023 606.133 255.728 596.636C238.93 566.487 297.376 559.251 319.807 554.333" stroke="#1F2937" stroke-width="18" stroke-linecap="round"/>
<path d="M562.28 508.837C567.924 506.887 573.353 505.214 579.241 503.799C593.988 500.256 608.466 497.215 623.611 495.214C636.672 493.49 648.574 488.579 662.455 490.53C695.691 495.196 717.878 523.908 697.755 552.008C661.951 602.013 502.708 627.977 488.721 631.265C474.677 634.568 339.312 660.214 294.113 654.221C281.743 652.58 231.298 634.298 214.808 625.071C171.653 600.931 202.008 560.644 234.33 544.578C248.32 537.619 267.082 539.598 282.446 537.59C285.754 537.156 303.43 536.638 305.893 536.569" stroke="#1F2937" stroke-width="18" stroke-linecap="round"/>
<path fill-rule="evenodd" clip-rule="evenodd" d="M77.7888 140.799C75.0166 141.098 55.5309 143.548 58.4348 149.632C61.8392 156.765 95.9736 156.994 91.9828 145.022C90.0892 139.341 81.1396 140.438 77.7888 140.799Z" fill="#1F2937" stroke="#1F2937" stroke-width="0.0126664" stroke-linecap="round"/>
<path fill-rule="evenodd" clip-rule="evenodd" d="M68.0572 301.755C67.3306 298.187 94.6459 295.286 97.4969 294.56C125.954 287.32 124.548 282.836 140.302 289.369C141.265 289.77 140.286 294.29 140.107 295.439C139.583 298.802 70.2897 312.713 68.0572 301.755Z" fill="#1F2937" stroke="#1F2937" stroke-width="0.013066" stroke-linecap="round"/>
<path fill-rule="evenodd" clip-rule="evenodd" d="M126.386 176.95C123.71 182.814 120.403 194.869 126.898 198.718C138.385 205.524 205.211 221.101 215.166 210.669C217.698 208.016 214.26 202.473 213.102 201.317C207.974 196.185 202.293 190.687 195.446 186.767C183.714 180.046 144.907 167.936 130.908 172.084C127.966 172.955 127.251 175.062 126.386 176.95Z" fill="#1F2937" stroke="#1F2937" stroke-width="0.013066" stroke-linecap="round"/>
<path fill-rule="evenodd" clip-rule="evenodd" d="M476.031 252.815C491.988 249.161 468.078 254.007 462.475 254.98C448.524 257.403 421.786 261.633 405.105 261.633C363.393 261.633 336.333 231.661 301.407 215.333C296.015 212.812 289.797 207.213 282.519 205.035C272.365 201.993 246.5 195.154 244.107 212.376C243.505 216.707 243.672 220.973 246.24 224.668C256.269 239.087 280.992 254.112 262.287 271.225C241.628 290.13 188.33 260.971 171.373 297.656C170.048 300.524 168.386 304.223 169.239 307.56C171.21 315.255 217.982 311.818 229.592 311.488C269.26 310.362 308.404 319.92 346.98 316.34C365.116 314.656 380.87 299.198 397.596 293.217C413.635 287.481 436.061 283.14 449.073 271.279C452.421 268.227 475.019 253.791 476.031 252.815Z" fill="#1F2937" stroke="#1F2937" stroke-width="0.013066" stroke-linecap="round"/>
<path fill-rule="evenodd" clip-rule="evenodd" d="M133.898 238.164C135.284 237.818 135.495 233.325 131.867 232.797C124.646 231.745 115.955 232.636 111.296 226.942C105.908 220.357 92.6861 205.296 87.8964 212.295C70.4677 237.76 133.898 238.164 133.898 238.164Z" fill="#1F2937" stroke="#1F2937" stroke-width="0.00831428" stroke-miterlimit="1.5" stroke-linecap="round"/>
</svg>
